<svg xmlns="http://www.w3.org/2000/svg" version="1.1" xmlns:xlink="http://www.w3.org/1999/xlink" xmlns:svgjs="http://svgjs.dev/svgjs" width="2000" height="2000" viewBox="0 0 2000 2000"><g transform="matrix(1,0,0,1,0,0)"><svg viewBox="0 0 280 280" data-background-color="#e8f2f1" preserveAspectRatio="xMidYMid meet" height="2000" width="2000" xmlns="http://www.w3.org/2000/svg" xmlns:xlink="http://www.w3.org/1999/xlink"><g id="tight-bounds" transform="matrix(1,0,0,1,0,0)"><svg viewBox="0 0 280 280" height="280" width="280"><g><svg viewBox="0 0 280 280" height="280" width="280"><g><svg viewBox="0 0 280 280" height="280" width="280"><g id="textblocktransform"><svg viewBox="0 0 280 280" height="280" width="280" id="textblock"><g><svg viewBox="0 0 280 280" height="280" width="280"><g transform="matrix(1,0,0,1,74.00421384042518,74.00336708925556)"><svg viewBox="0 0 131.99157231914964 131.99326582148888" height="131.99326582148888" width="131.99157231914964"><g id="icon-0"><svg xmlns="http://www.w3.org/2000/svg" xmlns:xlink="http://www.w3.org/1999/xlink" version="1.1" x="0" y="0" viewBox="6.128999999999998 5.951 77.94 77.941" enable-background="new 0 0 90 90" xml:space="preserve" height="131.99326582148888" width="131.99157231914964" class="icon-xg-0" data-fill-palette-color="accent" id="xg-0"><g fill="#e56d4b" data-fill-palette-color="accent"><path d="M45.099 5.951c-21.488 0-38.97 17.482-38.97 38.971 0 21.488 17.481 38.97 38.97 38.97 21.488 0 38.97-17.482 38.97-38.97C84.069 23.433 66.587 5.951 45.099 5.951zM45.099 81.214c-20.012 0-36.292-16.28-36.292-36.292 0-20.012 16.281-36.293 36.292-36.293 20.012 0 36.293 16.282 36.293 36.293C81.393 64.934 65.111 81.214 45.099 81.214z" fill="#e56d4b" data-fill-palette-color="accent"></path></g><path d="M77.794 50.402c-0.671-0.312-1.467-0.024-1.779 0.646-1.277 2.737-4.835 6.06-9.922 8.776 1.516-4.137 2.478-8.715 2.63-13.565h8.282c0.739 0 1.339-0.599 1.339-1.338 0-0.74-0.6-1.339-1.339-1.339h-8.26c-0.126-4.375-0.87-8.62-2.04-12.525 4.226 2.68 7.485 5.936 9.365 9.179 0.246 0.429 0.696 0.668 1.158 0.668 0.229 0 0.458-0.058 0.67-0.18 0.64-0.37 0.858-1.189 0.487-1.83-2.456-4.242-7.046-8.504-13.003-11.668-3.029-7.701-7.664-13.572-12.113-15.647-0.671-0.312-1.466-0.024-1.779 0.647-0.312 0.669-0.022 1.465 0.646 1.779 3.013 1.404 6.733 5.566 9.575 11.494-4.567-1.896-9.746-3.117-15.274-3.291v-9.192c0-0.74-0.599-1.339-1.338-1.339-0.739 0-1.338 0.599-1.338 1.339v9.168c-5.325 0.155-10.455 1.223-15.013 2.86 2.811-5.683 6.416-9.671 9.35-11.039 0.67-0.314 0.96-1.11 0.647-1.779-0.313-0.67-1.109-0.96-1.779-0.647-4.309 2.01-8.79 7.583-11.819 14.928-6.58 2.998-11.52 7.151-13.389 11.154-0.312 0.67-0.023 1.466 0.647 1.78 0.669 0.312 1.467 0.022 1.779-0.647 1.252-2.684 4.694-5.931 9.622-8.617-1.326 4.144-2.18 8.697-2.316 13.406h-8.295c-0.739 0-1.339 0.599-1.339 1.339 0 0.739 0.6 1.338 1.339 1.338h8.318c0.148 4.688 1.049 9.122 2.479 13.149-4.014-2.38-7.271-5.396-9.266-8.844-0.371-0.64-1.188-0.858-1.829-0.488s-0.859 1.189-0.488 1.828c2.744 4.741 7.427 8.697 13.194 11.463 3.226 6.854 7.928 12.137 12.598 14.84 0.211 0.123 0.441 0.182 0.669 0.182 0.462 0 0.912-0.24 1.159-0.669 0.372-0.641 0.152-1.458-0.487-1.828-3.635-2.104-7.279-5.946-10.117-10.936 4.423 1.602 9.302 2.541 14.336 2.685v9.186c0 0.739 0.599 1.339 1.338 1.339 0.74 0 1.338-0.6 1.338-1.339v-9.169c5.061-0.147 9.943-1.121 14.329-2.623-2.831 4.951-6.456 8.763-10.073 10.857-0.639 0.37-0.857 1.188-0.487 1.828 0.249 0.429 0.698 0.669 1.16 0.669 0.228 0 0.458-0.059 0.67-0.182 4.625-2.677 9.275-7.887 12.499-14.644 6.836-3.014 11.988-7.277 13.905-11.384C78.755 51.511 78.463 50.715 77.794 50.402zM63.244 29.116c1.581 4.251 2.666 9.162 2.825 14.467H46.438V24.886C52.675 25.093 58.417 26.711 63.244 29.116zM27.219 28.521c4.696-2.025 10.35-3.473 16.542-3.658v18.719H24.167C24.332 38.028 25.515 32.907 27.219 28.521zM27.581 61.273c-1.939-4.434-3.21-9.532-3.391-15.014h19.571v18.704C38.016 64.784 32.418 63.457 27.581 61.273zM46.438 64.98V46.26h19.608c-0.185 5.576-1.495 10.757-3.489 15.241C57.945 63.434 52.444 64.801 46.438 64.98z" fill="#e56d4b" data-fill-palette-color="accent"></path></svg></g></svg></g><g id="text-0"><path d="M138.032 7.778l-0.128-4.541 4.53-0.128 0.128 4.541z" fill="#ff851b" data-fill-palette-color="primary"></path><path d="M0 136.191c0-0.958 0.777-1.735 1.735-1.735 0.958 0 1.735 0.777 1.736 1.735 0 0.958-0.777 1.735-1.736 1.736-0.958 0-1.735-0.777-1.735-1.736z" fill="#ff851b" data-fill-palette-color="primary"></path><path d="M276.529 136.191c0-0.958 0.777-1.735 1.736-1.735 0.958 0 1.735 0.777 1.735 1.735 0 0.958-0.777 1.735-1.735 1.736-0.958 0-1.735-0.777-1.736-1.736z" fill="#ff851b" data-fill-palette-color="primary"></path></g><g id="text-1"><path d="M139.65 276.888l0.003-0.669 0.68 0.003-0.002 0.669z" fill="#c9b0d8" data-fill-palette-color="secondary"></path></g></svg></g></svg></g></svg></g><g></g></svg></g><defs></defs></svg><rect width="280" height="280" fill="none" stroke="none" visibility="hidden"></rect></g></svg></g></svg>